<svg width="40" height="40" viewBox="0 0 40 40" fill="none" xmlns="http://www.w3.org/2000/svg">
<mask id="mask0_4731_43990" style="mask-type:luminance" maskUnits="userSpaceOnUse" x="0" y="0" width="40" height="40">
<path fill-rule="evenodd" clip-rule="evenodd" d="M0 0H40V40H0V0Z" fill="white"/>
</mask>
<g mask="url(#mask0_4731_43990)">
<path fill-rule="evenodd" clip-rule="evenodd" d="M40 20C40 31.0457 31.0457 40 20 40C8.95433 40 0 31.0457 0 20C0 8.95433 8.95433 0 20 0C31.0457 0 40 8.95433 40 20Z" fill="#FFC31B"/>
</g>
<path fill-rule="evenodd" clip-rule="evenodd" d="M13.4555 9.12803V9.12797C13.2584 8.96057 13.0092 8.91377 12.7536 8.99609C12.2119 9.17081 11.8863 10.1648 11.7585 12.0347C11.7389 12.3205 11.6902 12.4322 11.6665 12.4707C11.63 12.4525 11.5678 12.4053 11.5231 12.3509C11.498 12.3184 10.9049 11.5486 10.5511 10.9621C10.2469 10.4575 10.3057 9.71127 10.3372 9.31047C10.3401 9.27361 10.3428 9.2397 10.3449 9.20908C10.3658 8.91222 10.3203 8.31704 10.0164 7.96915C9.87756 7.81022 9.70533 7.72306 9.50422 7.7101C8.90575 7.67451 8.65831 8.34584 8.60795 8.74832C8.60661 8.75832 8.60601 8.76846 8.60601 8.7784C8.60601 8.78122 8.60486 9.06874 8.55289 10.0056C8.53067 10.4087 8.43055 10.4783 8.43022 10.4786C8.42357 10.4804 8.40201 10.4757 8.39154 10.47C8.37757 10.461 8.36267 10.4535 8.3481 10.4479C8.34286 10.4459 7.80206 10.2369 7.3732 10.0986C6.98542 9.97361 6.67245 9.99147 6.44342 10.1522C6.22559 10.305 6.10849 10.5703 6.09546 10.9407C6.06733 11.7382 6.85026 11.9678 7.47942 12.1522C7.62399 12.1947 7.76063 12.2347 7.88431 12.2794C8.48561 12.4966 9.34764 13.445 9.59192 13.9489C9.85728 14.4967 10.7866 16.1959 10.826 16.268C10.8686 16.3457 10.9499 16.3939 11.0385 16.3939C11.0787 16.3939 11.119 16.3836 11.1545 16.3642C11.2209 16.3278 11.2642 16.2632 11.2764 16.1923L13.2885 15.4424C13.331 15.4775 13.3851 15.498 13.4422 15.498C13.5757 15.498 13.6843 15.3895 13.6843 15.256C13.6843 15.1794 13.6813 15.0594 13.6773 14.9039C13.6582 14.1538 13.6184 12.5927 13.8152 11.2956C13.9787 10.2167 13.8543 9.46719 13.4555 9.12803Z" fill="#854C37"/>
<path fill-rule="evenodd" clip-rule="evenodd" d="M33.9245 10.9406C33.9114 10.5701 33.7943 10.3049 33.5765 10.152C33.3476 9.99134 33.0345 9.97348 32.6468 10.0985C32.2175 10.2369 31.677 10.4458 31.6725 10.4475C31.6595 10.4525 31.6468 10.4587 31.6322 10.4676V10.4675C31.6179 10.4756 31.5961 10.4804 31.5904 10.4788C31.5894 10.4782 31.4893 10.4092 31.467 10.0054C31.4151 9.06862 31.4139 8.78109 31.4139 8.77841C31.4139 8.76834 31.4133 8.7582 31.4121 8.74886C31.3625 8.34511 31.1186 7.67284 30.5152 7.70997C30.3145 7.72293 30.1424 7.81009 30.0034 7.96909C29.6996 8.31691 29.654 8.9121 29.675 9.20888C29.6771 9.23957 29.6797 9.27355 29.6827 9.31034C29.7143 9.71121 29.773 10.4574 29.4689 10.9619C29.124 11.5337 28.5621 12.2661 28.5004 12.3462C28.4534 12.4034 28.3901 12.452 28.3533 12.4705C28.3296 12.4318 28.281 12.32 28.2615 12.0346C28.1338 10.1647 27.8082 9.17075 27.2664 8.99596C27.0109 8.91364 26.7616 8.96044 26.5645 9.12797C26.1655 9.46713 26.0412 10.2167 26.2048 11.2955C26.4017 12.5925 26.3618 14.1536 26.3427 14.9047C26.3387 15.0592 26.3356 15.1793 26.3356 15.2558C26.3356 15.3893 26.4443 15.4979 26.5778 15.4979C26.6349 15.4979 26.6889 15.4774 26.7314 15.4423L28.7437 16.1922C28.7557 16.2631 28.7991 16.3278 28.8655 16.364C28.901 16.3835 28.9412 16.3938 28.9816 16.3938C29.0701 16.3938 29.1514 16.3456 29.1939 16.2679C29.2334 16.1959 30.1621 14.4978 30.4281 13.9488C30.6722 13.4448 31.5343 12.4964 32.1355 12.2793C32.2596 12.2345 32.396 12.1945 32.5405 12.1521C33.1696 11.9677 33.9526 11.7381 33.9245 10.9406Z" fill="#854C37"/>
<path fill-rule="evenodd" clip-rule="evenodd" d="M32.4228 18.9144C32.855 19.0944 36.8997 20.7191 36.786 19.2828C36.752 18.8515 36.5008 18.4151 36.2561 18.0689C35.6131 17.1592 34.6477 16.5285 33.6852 16.0009C32.5739 15.3917 31.3886 14.9364 30.216 14.4625C27.5148 13.3711 24.6464 12.693 21.7395 12.4865C17.6853 12.1985 13.5637 12.9434 9.80395 14.4625C8.6313 14.9364 7.44589 15.3917 6.33475 16.0009C5.37221 16.5285 4.40677 17.1592 3.76378 18.0689C3.51903 18.4151 3.2679 18.8515 3.23379 19.2828C3.12025 20.7191 7.16489 19.0944 7.59704 18.9144C8.56536 18.5109 8.9902 18.586 8.74827 19.1976C8.16208 20.6797 7.71764 22.2446 7.26601 23.7726C7.09317 24.3575 6.93088 24.9453 6.77073 25.5336L6.78228 25.415C6.43225 26.6791 5.9218 27.8401 5.3054 28.9914C5.01223 29.539 4.75352 30.1039 4.48842 30.6654C4.2945 31.0761 4.10864 31.4908 3.93111 31.909C4.31163 32.4216 4.71619 32.9153 5.14304 33.3885V33.3887C5.15257 33.3993 5.16258 33.4096 5.17218 33.4202C5.26323 33.5207 5.35542 33.6202 5.44842 33.7188C5.48481 33.7574 5.52154 33.7956 5.55827 33.834C5.63045 33.9093 5.70331 33.9841 5.77676 34.0584C5.8137 34.0958 5.85056 34.1333 5.88776 34.1705C5.90132 34.184 5.91468 34.1978 5.92825 34.2113L5.92838 34.2101C9.54194 37.7887 14.5121 40 19.9995 40C25.4872 40 30.4572 37.7884 34.0708 34.2096L34.0709 34.2113C34.0916 34.1909 34.1117 34.1699 34.1323 34.1494C34.1626 34.119 34.1926 34.0885 34.2229 34.058C34.3071 33.9727 34.3907 33.8866 34.4734 33.7999C34.5001 33.7719 34.527 33.7441 34.5534 33.7161C34.661 33.602 34.7675 33.4869 34.8724 33.3703C34.8731 33.3695 34.8739 33.3687 34.8747 33.3679V33.3677C35.2947 32.9008 35.6931 32.4142 36.068 31.909C35.8905 31.4908 35.7047 31.0761 35.5108 30.6654C35.2456 30.1039 34.9869 29.539 34.6937 28.9914C34.0774 27.8401 33.5669 26.6791 33.2169 25.415L33.217 25.4158C33.0673 24.8668 32.9152 24.3184 32.7539 23.7726C32.3022 22.2446 31.8577 20.6797 31.2715 19.1976C31.0296 18.586 31.4545 18.5109 32.4228 18.9144Z" fill="#B26937"/>
<path fill-rule="evenodd" clip-rule="evenodd" d="M31.5372 31.3976C31.2133 28.7413 30.7453 26.085 29.9862 23.549C29.4024 21.5985 28.1681 18.8459 26.0768 18.2C24.8697 17.8271 23.6745 18.2976 22.98 19.3798C22.5406 20.0645 22.3096 20.8657 22.1364 21.665C21.8821 22.8388 21.7354 24.3773 20.2798 24.4645C20.1948 24.4696 20.1128 24.4663 20.0323 24.4593V24.4562C20.0251 24.457 20.0174 24.4571 20.0102 24.4578C20.0029 24.4571 19.9952 24.457 19.988 24.4562V24.4593C19.9075 24.4663 19.8255 24.4696 19.7405 24.4645C18.285 24.3773 18.1382 22.8388 17.8839 21.665C17.7107 20.8657 17.4797 20.0645 17.0403 19.3798C16.3458 18.2976 15.1506 17.8271 13.9435 18.2C11.8523 18.8459 10.6179 21.5985 10.0341 23.549C9.27503 26.085 8.80702 28.7413 8.48311 31.3976C8.35761 32.4269 8.25374 33.4561 8.16302 34.4783C8.11743 34.9911 8.07492 35.5102 8.04102 36.0322C11.3766 38.5244 15.5158 40.0001 19.9998 40.0001C24.4927 40.0001 28.6394 38.5185 31.9784 36.0174C31.9446 35.5003 31.9024 34.9862 31.8574 34.4783C31.7666 33.4561 31.6627 32.4269 31.5372 31.3976Z" fill="#FFD6B2"/>
<path fill-rule="evenodd" clip-rule="evenodd" d="M20.5514 22.2238C20.306 22.2001 20.0568 22.2073 19.8112 22.2251C19.5774 22.242 19.3452 22.2791 19.1175 22.3341C18.7245 22.4289 18.0897 22.6574 18.2556 23.1935C18.442 23.7202 18.7289 24.1649 19.2462 24.3607L19.2453 24.362C19.2453 24.362 19.26 24.3673 19.2849 24.3752C19.3952 24.4134 19.5161 24.4402 19.6481 24.4548C19.8498 24.4833 20.114 24.4964 20.4096 24.4526C21.1197 24.365 21.4947 23.9077 21.7268 23.3272C21.7309 23.317 21.7348 23.3069 21.7385 23.2969C21.7403 23.2922 21.7419 23.2874 21.7438 23.2827C22.0163 22.5745 21.0704 22.2739 20.5514 22.2238Z" fill="#70422B"/>
<path fill-rule="evenodd" clip-rule="evenodd" d="M14.3533 24.9854C14.3533 25.1757 13.9213 25.3299 13.3885 25.3299C12.8557 25.3299 12.4238 25.1757 12.4238 24.9854C12.4238 24.7951 12.8557 24.6409 13.3885 24.6409C13.9213 24.6409 14.3533 24.7951 14.3533 24.9854Z" fill="#DB748A"/>
<path fill-rule="evenodd" clip-rule="evenodd" d="M27.5961 24.8561C27.6057 25.0461 27.1821 25.222 26.6499 25.2488C26.1178 25.2756 25.6787 25.1434 25.6691 24.9533C25.6595 24.7632 26.0831 24.5874 26.6153 24.5606C27.1473 24.5337 27.5865 24.6661 27.5961 24.8561Z" fill="#DB748A"/>
<path fill-rule="evenodd" clip-rule="evenodd" d="M15.6334 23.0882C15.9412 22.7775 16.1079 22.335 15.9912 21.846C15.7975 21.035 14.8818 20.5967 14.1091 20.8079C12.928 21.1307 12.8184 22.7339 13.8348 23.3474C14.4411 23.7133 15.1862 23.5398 15.6334 23.0882Z" fill="#70422B"/>
<path fill-rule="evenodd" clip-rule="evenodd" d="M14.078 21.3472C13.8885 21.3472 13.7344 21.5013 13.7344 21.6908C13.7344 21.8803 13.8885 22.0345 14.078 22.0345C14.2675 22.0345 14.4216 21.8803 14.4216 21.6908C14.4216 21.5013 14.2675 21.3472 14.078 21.3472Z" fill="white"/>
<path fill-rule="evenodd" clip-rule="evenodd" d="M26.5992 23.0882C26.907 22.7775 27.0737 22.335 26.957 21.846C26.7634 21.035 25.8476 20.5967 25.0749 20.8079C23.8938 21.1307 23.7842 22.7339 24.8006 23.3474C25.407 23.7133 26.1521 23.5398 26.5992 23.0882Z" fill="#70422B"/>
<path fill-rule="evenodd" clip-rule="evenodd" d="M25.0439 21.3472C24.8544 21.3472 24.7002 21.5013 24.7002 21.6908C24.7002 21.8803 24.8544 22.0345 25.0439 22.0345C25.2333 22.0345 25.3875 21.8803 25.3875 21.6908C25.3875 21.5013 25.2333 21.3472 25.0439 21.3472Z" fill="white"/>
<path fill-rule="evenodd" clip-rule="evenodd" d="M16.7635 26.3527C17.1023 25.788 22.882 25.5205 23.4204 26.059C23.9589 26.5974 22.882 29.0938 20.1409 29.4854C17.3998 29.877 16.3229 27.0869 16.7635 26.3527Z" fill="#DB748A"/>
<path fill-rule="evenodd" clip-rule="evenodd" d="M21.0871 27.3148C21.6798 27.4936 22.216 27.8174 22.7308 28.1634C23.5032 27.33 23.7307 26.3693 23.4204 26.059C22.8819 25.5205 17.1022 25.788 16.7634 26.3527C16.5397 26.7254 16.7074 27.6278 17.2851 28.3749C18.2292 27.3689 19.7579 26.9138 21.0871 27.3148Z" fill="#854C37"/>
<path fill-rule="evenodd" clip-rule="evenodd" d="M21.9561 14.6005C21.9537 14.5933 21.9512 14.5861 21.9486 14.5789C21.8392 14.2881 21.6048 14.0694 21.35 13.9029C21.0472 13.7052 20.7125 13.5387 20.3589 13.4557C19.9824 13.3673 19.5891 13.3786 19.2107 13.4492C18.9984 13.4887 18.7899 13.5468 18.5861 13.6181C18.4284 13.6732 18.2765 13.7396 18.1338 13.8271C18.0015 13.9083 17.8834 14.0044 17.7718 14.1118C17.4986 14.3745 17.284 14.7398 17.4907 15.1136C17.6641 15.4273 18.0849 15.5576 18.4024 15.3925C18.6578 15.2595 18.9156 14.953 19.0005 14.6526C19.0109 14.6532 19.0212 14.6537 19.0316 14.6543C19.0592 14.8816 19.185 15.143 19.2921 15.3157C19.4334 15.5435 19.6467 15.7328 19.9138 15.7911C20.0107 15.8122 20.114 15.8182 20.2145 15.807C20.8821 15.703 20.7606 15.0707 20.7606 15.0707C20.7606 15.0707 21.1039 15.461 21.567 15.3326C21.6366 15.3049 21.7013 15.2683 21.7559 15.2233C21.9363 15.0743 22.0293 14.8256 21.9561 14.6005Z" fill="#985C37"/>
</svg>
