<svg xmlns="http://www.w3.org/2000/svg" width="217" height="26" viewBox="0 0 217 26">
    <g fill="none" fill-rule="evenodd">
        <g>
            <g>
                <g>
                    <g>
                        <g fill-rule="nonzero">
                            <path fill="#686868" d="M29.11 12.913l4.537.05c0-7.15-5.898-12.961-13.156-12.961C15.727-.073 11.569 2.46 9.3 6.185V.002H4.611L0 4.62h4.612V26H9.3v-6.897c-.519-.864-.817-1.717-1.076-2.536-.184-.579-.28-1.158-.378-1.78-.085-.549-.182-1.13-.182-1.787 0-2.682.729-5.102 2.392-7.039l.152-.149c.226-.223.453-.521.756-.745l.15-.149.908-.67s.076 0 .076-.075c.378-.223.68-.447 1.058-.67.378-.15.756-.298 1.135-.447.075-.075.226-.075.302-.15.302-.074.53-.148.832-.223.15 0 .227-.074.378-.074.302-.075.605-.15.832-.15.15 0 .226-.074.378-.074.378-.074.831-.074 1.285-.074.605 0 1.285.074 1.815.149h.226c.076 0 .227.074.303.074.907.224 1.739.522 2.57.894.303.15.606.298.832.447 0 0 .076 0 .076.075.227.149.53.298.756.521 0 0 .076 0 .076.075.227.149.453.372.68.596 0 0 0 .074.076.074.227.224.454.447.605.67l.075.075c.227.224.378.447.53.67.075.075.15.224.226.299.152.149.227.298.379.521.075.149.226.372.302.521.076.075.151.224.151.298.08.104.115.197.168.294.06.11.111.214.15.293.077.074.06.158.136.307.151.298.227.596.302.894.152.67.303 1.341.378 2.012v.843l.516-1.12-.516 1.12zM51.067 16.837V0H50.3L29.06 20.636h17.33V26h4.678v-5.364h5.521v-3.8h-5.521zm-4.678 0h-7.898l7.898-7.6v7.6z" transform="translate(-120 -23) translate(0 1) translate(120 22)"/>
                            <path fill="#FF7800" d="M29.267 20.462l3.623-3.464c.298-1.154.757-3.156.757-4.388h-4.544c0 4.771-3.725 8.696-8.419 8.696-4.619 0-8.418-3.925-8.418-8.696 0-4.77 3.725-8.695 8.418-8.695 4.321 0 7.897 3.317 8.344 7.704-.046-.59-.137-1.164-.269-1.721-1.143-4.835-5.374-8.369-10.384-8.369-5.886 0-10.728 4.925-10.728 11.081 0 7.388 5.81 13.39 12.963 13.39 4.32 0 8.05-1.995 10.435-5.381h-2.017l.24-.157z" transform="translate(-120 -23) translate(0 1) translate(120 22)"/>
                        </g>
                        <path fill="#686868" d="M87.077 10.422c.167 0 .251.084.251.251V17c0 .167-.084.25-.25.25h-8.612l-.53.865h8.918l1.421.808c.112.074.13.186.056.334-.78 1.338-2.313 2.713-4.598 4.124 1.877.186 3.632.214 5.267.084l-.362 2.285h-.753c-1.709-.018-3.985-.362-6.827-1.03-2.155.742-4.3 1.17-6.437 1.281l-.641-2.174c.854-.018 2.359-.176 4.514-.473-1.17-.78-2.136-1.617-2.898-2.508-.669.557-1.356 1.021-2.062 1.393L72.39 20.51c1.56-.854 2.778-1.941 3.65-3.26h-1.058c-.167 0-.251-.084-.251-.251v-6.326c0-.167.084-.25.25-.25h12.095zM86.631.362c.576-.018.864.26.864.836V5.24c-.018.576-.306.864-.864.864h-12.01l1.727.53-.334.919H88.22v1.923H75.15l-.056.111c-.483.818-.966 1.487-1.449 2.007l-1.895-1.115c1.17-1.282 2.007-2.74 2.508-4.375H66.93v4.124c1.43-1.022 2.545-2.201 3.344-3.539l1.812 1.115c-1.264 1.988-2.527 3.362-3.79 4.124l-1.366-1.338v4.71c1.747-1.077 3.214-2.434 4.403-4.069l1.756 1.254-2.146 2.508v10.701h-2.257v-8.806l-1.143.67-.64-.753c-.224 3.771-.78 6.604-1.673 8.5L63 24.355c1.115-2.694 1.672-5.88 1.672-9.559V1.17c0-.538.27-.808.808-.808h21.151zm-5.74 22.155c1.727-.818 2.944-1.524 3.65-2.118 0-.279-.12-.4-.362-.363h-6.632c.929 1.004 1.876 1.737 2.842 2.202l.502.279zm4.291-9.364V11.9l-.083-.083h-8.165l-.056.083v1.254h8.304zm-8.304 1.394v1.226l.056.111h8.165l.083-.111v-1.226h-8.304zm-9.949-10.59h17.947c.241 0 .362-.12.362-.362V2.87c-.019-.241-.149-.362-.39-.362H67.292c-.242-.019-.363.102-.363.362v1.087zM120.331.697v2.145h-21.15c-.187-.018-.28.075-.28.28v11.313c-.037 4.199-.603 7.803-1.7 10.813L95 24.495c1.04-2.917 1.588-6.502 1.644-10.757V1.282c-.018-.39.177-.585.585-.585h23.102zm-9.447 16.58v1.812h7.552v2.146h-7.552v1.755h9.949v2.174H98.818V22.99h3.26v-4.068h2.257v4.068h4.264v-5.712h2.285zm-3.01-13.794l.39 2.118c-.594.149-1.523.298-2.786.446V7.97h3.26v2.174h-2.675l3.038 2.703-1.533 1.672-2.09-2.146v5.155h-2.146v-4.876c-.65 1.133-1.412 2.164-2.285 3.093l-1.895-1.059c1.43-1.338 2.61-2.852 3.54-4.542h-3.01V7.97h3.65v-1.7l-2.842.14-.307-2.118c3.27-.093 5.834-.363 7.692-.809zm10.34-.306l.417 2.118-3.037.501v1.979h4.375V9.92h-3.762c.873 1.542 2.443 3.177 4.71 4.904l-1.896 1.338c-1.56-1.43-2.703-2.647-3.427-3.65v4.904h-2.146v-4.849c-1.059 1.43-2.136 2.629-3.233 3.595l-1.867-1.282c1.877-1.523 3.419-3.177 4.626-4.96h-3.26V7.775h3.734V6.019l-2.926.195-.362-2.145c3.437-.168 6.121-.465 8.053-.892zM129.675 24.941h-2.257v-8.527c0-.465.242-.697.725-.697h7.663c.502 0 .752.232.752.697v6.771c0 .52-.26.78-.78.78h-6.103v.976zm20.733-9.949l2.174.948-1.45 2.48c-2.228 3.196-6.316 5.639-12.26 7.33l-1.171-2.314c2.174-.52 3.901-1.059 5.183-1.616l.474-.167c2.972-1.394 5.323-3.614 7.05-6.66zm-16.497 2.87c.242 0 .372.122.39.363v3.121c0 .279-.158.427-.474.446h-4.152v-3.567c0-.26.121-.38.363-.362zm14.435-7.718l1.867 1.477c-3.232 4.087-6.976 6.725-11.23 7.914l-.92-2.23c1.97-.631 3.818-1.467 5.546-2.508 1.282-.891 2.86-2.443 4.737-4.653zm-12.4 1.867v2.145h-7.97v-2.145h7.97zm9.223-5.992l1.895 1.422c-2.303 3.028-5.016 5.034-8.137 6.019l-1.003-2.202c1.412-.483 2.712-1.114 3.901-1.895.93-.631 2.044-1.746 3.344-3.344zm-9.224 2.174v2.146h-7.97V8.193h7.97zM144.417 0l1.783.836-.306.446c1.635 1.84 3.818 3.52 6.549 5.044l-1.505 1.867c-2.434-1.375-4.524-3.103-6.27-5.183-.855 1.077-1.589 1.932-2.202 2.563-.966.93-2.183 1.877-3.65 2.843l-1.7-1.728c1.82-1.096 3.214-2.08 4.18-2.954.947-.892 1.988-2.136 3.12-3.734zm-7.608 4.375V6.55H127V4.375h9.81zm-.752-3.678v2.145h-7.747V.697h7.747zM179.315 20.845c1.616.613 3.446 1.588 5.49 2.926l-1.143 1.978c-2.136-1.356-3.92-2.303-5.35-2.842l1.003-2.062zm-9.057 1.672c-2.21 1.69-4.356 2.777-6.437 3.26-.111-.91-.279-1.635-.502-2.174 1.988-.52 3.827-1.523 5.518-3.01l1.421 1.924zm8.528-13.6c1.133-.687 2.053-1.3 2.758-1.839h-4.71c.428.502 1.078 1.115 1.952 1.84zm-.335 2.118c-1.245-.873-2.499-2.071-3.762-3.594-.724 1.3-1.802 2.498-3.232 3.594h6.994zm1.895 3.595v-1.588l-.111-.084h-10.618c-.093 0-.12.028-.083.084v1.588h10.812zm-10.812 1.923v1.45l.083.11h10.618l.111-.11v-1.45h-10.812zm-1.867 3.483c-.186-.018-.279-.12-.279-.306v-6.632l-1.143.418-1.059-1.979c1.227-.334 2.323-.734 3.289-1.198L166.3 9.113l1.031-1.756c.966.409 2.007 1.022 3.121 1.84.93-.744 1.635-1.45 2.118-2.119h-6.326V5.155h7.162l.195-1.449v-.278h-8.36c-.186-.019-.278.074-.278.278v9.085c-.019 4.96-1.31 9.224-3.874 12.791l-1.979-.975c1.468-2.118 2.471-4.115 3.01-5.992l.502-3.093-1.979 1.7L159 15.633c1.356-1.04 2.629-2.182 3.818-3.427V1.979c0-.39.195-.586.585-.586h9.224V.083h2.369v1.31h9.725v2.035h-8.973v.278c0 .428-.065.91-.195 1.45h8.583v1.922h-2.118l1.003 1.45c-.631.5-1.356 1.03-2.173 1.588l.111.028c1.06.408 2.434.696 4.125.864l-.836 2.062-1.756-.363v7.023c-.019.204-.12.306-.307.306h-6.047v3.205c-.037 1.04-.436 1.802-1.198 2.285-.836.539-2.397.53-4.682-.028V23.13c1.821.52 2.945.613 3.372.278.167-.148.251-.39.251-.724v-2.648h-6.214zM161.174 2.62c.538 2.173.891 4.402 1.059 6.688l-2.146.139c-.112-1.58-.446-3.753-1.003-6.521l2.09-.306zM212.151 6.186v2.258h-10.06c-.836 1.133-1.913 2.433-3.232 3.901l11.314-.39-1.505-1.533 1.755-1.616c1.635 1.468 3.372 3.465 5.212 5.991l-1.868 1.561-1.727-2.257-7.413.334v2.898h9.92v2.369h-9.92v2.982h11.426v2.369H191v-2.37h11.258v-2.981h-9.753v-2.369h9.753V14.52l-9.753.39-.53-2.34 3.484-.085c1.244-1.263 2.461-2.61 3.65-4.04h-4.403V6.186h17.445zM204.627.084v2.062h9.865l2.062 1.03c-.148 1.561-.585 3.438-1.31 5.63l-2.145-.725c.501-1.746.752-2.851.752-3.316.019-.241-.084-.362-.307-.362h-19.757c-.13 0-.195.074-.195.223v3.706h-2.258v-5.74c-.018-.298.121-.446.418-.446h10.506V.084h2.369z" transform="translate(-120 -23) translate(0 1) translate(120 22)"/>
                    </g>
                </g>
            </g>
        </g>
    </g>
</svg>
